<svg width="1280" height="720" viewBox="0 0 1280 720" fill="none" xmlns="http://www.w3.org/2000/svg">
  <rect width="1280" height="720" fill="#ECF1F7"/>

  <!-- Browser frame -->
  <rect x="24" y="24" width="1232" height="672" rx="14" fill="#FFFFFF" stroke="#D1D5DB"/>
  <rect x="24" y="24" width="1232" height="42" rx="14" fill="#F3F4F6"/>
  <circle cx="46" cy="45" r="6" fill="#F87171"/>
  <circle cx="68" cy="45" r="6" fill="#FBBF24"/>
  <circle cx="90" cy="45" r="6" fill="#34D399"/>
  <rect x="120" y="35" width="720" height="20" rx="6" fill="#E5E7EB"/>
  <text x="140" y="49" fill="#6B7280" font-size="11" font-family="Arial, sans-serif">https://shop.example.com/checkout</text>

  <!-- Left: current tab content -->
  <rect x="40" y="78" width="850" height="602" fill="#F8FAFC"/>
  <rect x="56" y="98" width="420" height="20" rx="4" fill="#CBD5E1"/>
  <rect x="56" y="128" width="780" height="12" rx="4" fill="#E2E8F0"/>
  <rect x="56" y="146" width="760" height="12" rx="4" fill="#E2E8F0"/>
  <rect x="56" y="176" width="376" height="200" rx="10" fill="#DCEBFF"/>
  <rect x="448" y="176" width="388" height="200" rx="10" fill="#F1F5F9"/>
  <rect x="56" y="392" width="780" height="40" rx="8" fill="#FEE2E2"/>
  <text x="72" y="416" fill="#B91C1C" font-size="12" font-family="Arial, sans-serif">Validation error: Postcode format is invalid.</text>
  <rect x="56" y="448" width="160" height="36" rx="8" fill="#2563EB"/>
  <text x="136" y="471" text-anchor="middle" fill="white" font-size="12" font-family="Arial, sans-serif">Place Order</text>

  <!-- Right: sidepanel only -->
  <rect x="890" y="78" width="350" height="602" fill="#F7F8FA" stroke="#E5E7EB"/>
  <rect x="890" y="78" width="350" height="48" fill="#FFFFFF" stroke="#E5E7EB"/>
  <text x="904" y="108" fill="#111827" font-size="14" font-weight="700" font-family="Arial, sans-serif">AI Assistant</text>
  <rect x="1020" y="90" width="120" height="24" rx="12" fill="#E8F5E9"/>
  <text x="1080" y="106" text-anchor="middle" fill="#1B5E20" font-size="11" font-family="Arial, sans-serif">Gemini ▾</text>
  <rect x="1148" y="90" width="80" height="24" rx="12" fill="#EFF6FF"/>
  <text x="1188" y="106" text-anchor="middle" fill="#1D4ED8" font-size="11" font-family="Arial, sans-serif">New Chat</text>

  <!-- Skill chips -->
  <text x="904" y="146" fill="#6B7280" font-size="10" font-family="Arial, sans-serif">Default Skills</text>
  <rect x="904" y="152" width="82" height="22" rx="11" fill="#EEF2FF"/><text x="945" y="166" text-anchor="middle" fill="#4338CA" font-size="10" font-family="Arial, sans-serif">/screenshot</text>
  <rect x="992" y="152" width="96" height="22" rx="11" fill="#FCE7F3"/><text x="1040" y="166" text-anchor="middle" fill="#9D174D" font-size="10" font-family="Arial, sans-serif">/select-element</text>
  <rect x="1092" y="152" width="78" height="22" rx="11" fill="#ECFDF5"/><text x="1131" y="166" text-anchor="middle" fill="#047857" font-size="10" font-family="Arial, sans-serif">/test-section</text>
  <rect x="1174" y="152" width="62" height="22" rx="11" fill="#FFF7ED"/><text x="1205" y="166" text-anchor="middle" fill="#C2410C" font-size="10" font-family="Arial, sans-serif">/test-feature</text>

  <!-- Chat background area -->
  <rect x="900" y="182" width="330" height="360" rx="10" fill="#ECEFF3"/>

  <!-- Left/right bubbles (messenger style) -->
  <rect x="912" y="196" width="236" height="56" rx="14" fill="#FFFFFF"/>
  <text x="924" y="218" fill="#374151" font-size="11" font-family="Arial, sans-serif">Attached screenshot and selected button.</text>
  <text x="924" y="234" fill="#6B7280" font-size="11" font-family="Arial, sans-serif">Can you validate checkout flow?</text>

  <rect x="1004" y="264" width="214" height="62" rx="14" fill="#DCEBFF"/>
  <text x="1016" y="286" fill="#1E3A8A" font-size="11" font-family="Arial, sans-serif">I found 3 checks. 1 failed:</text>
  <text x="1016" y="302" fill="#1E3A8A" font-size="11" font-family="Arial, sans-serif">button missing aria-label.</text>
  <text x="1208" y="317" text-anchor="end" fill="#60A5FA" font-size="10" font-family="Arial, sans-serif">AI</text>

  <rect x="912" y="336" width="214" height="42" rx="14" fill="#FFFFFF"/>
  <text x="924" y="360" fill="#374151" font-size="11" font-family="Arial, sans-serif">Run /test-feature checkout button</text>

  <rect x="1002" y="390" width="216" height="56" rx="14" fill="#DCEBFF"/>
  <text x="1014" y="412" fill="#1E3A8A" font-size="11" font-family="Arial, sans-serif">Done. Pass 2, Partial 1, Fail 1.</text>
  <text x="1014" y="428" fill="#1E3A8A" font-size="11" font-family="Arial, sans-serif">Want an exportable QA summary?</text>

  <!-- Context chips -->
  <rect x="904" y="550" width="92" height="22" rx="11" fill="#DBEAFE"/><text x="950" y="564" text-anchor="middle" fill="#1D4ED8" font-size="10" font-family="Arial, sans-serif">URL ×</text>
  <rect x="1002" y="550" width="110" height="22" rx="11" fill="#FEF3C7"/><text x="1057" y="564" text-anchor="middle" fill="#92400E" font-size="10" font-family="Arial, sans-serif">Screenshot ×</text>
  <rect x="1118" y="550" width="110" height="22" rx="11" fill="#FCE7F3"/><text x="1173" y="564" text-anchor="middle" fill="#9D174D" font-size="10" font-family="Arial, sans-serif">Element ×</text>

  <!-- Input area -->
  <rect x="900" y="580" width="330" height="90" rx="10" fill="#FFFFFF" stroke="#D1D5DB"/>
  <text x="912" y="602" fill="#9CA3AF" font-size="10" font-family="Arial, sans-serif">Drop image here or use /screenshot</text>
  <rect x="912" y="610" width="248" height="46" rx="8" fill="#F9FAFB" stroke="#E5E7EB"/>
  <text x="922" y="637" fill="#6B7280" font-size="11" font-family="Arial, sans-serif">Message AI about this page context...</text>
  <rect x="1168" y="610" width="52" height="46" rx="8" fill="#2563EB"/>
  <text x="1194" y="638" text-anchor="middle" fill="#FFFFFF" font-size="20" font-family="Arial, sans-serif">↑</text>
  <text x="912" y="664" fill="#6B7280" font-size="10" font-family="Arial, sans-serif">Enter = Send  ·  Shift+Enter = New line</text>
</svg>
