<svg width="1280" height="820" viewBox="0 0 1280 820" fill="none" xmlns="http://www.w3.org/2000/svg">
  <rect width="1280" height="820" fill="#F1F5F9"/>
  <text x="16" y="22" font-size="13" fill="#374151" font-weight="600" font-family="system-ui,sans-serif">Wireframe: Browser Left + Right Sidepanel Chat (Messenger Style)</text>

  <!-- TOP BAR -->
  <rect x="0" y="32" width="1280" height="48" fill="#1F2937"/>
  <rect x="12" y="42" width="28" height="28" rx="6" fill="#3B82F6"/>
  <text x="26" y="61" fill="white" font-size="11" text-anchor="middle" font-weight="700" font-family="system-ui,sans-serif">AI</text>
  <text x="52" y="61" fill="#F9FAFB" font-size="14" font-weight="600" font-family="system-ui,sans-serif">AI Assistant Browser Extension</text>
  <circle cx="820" cy="56" r="5" fill="#10B981"/>
  <text x="832" y="61" fill="#86EFAC" font-size="11" font-family="system-ui,sans-serif">Connected</text>
  <rect x="900" y="44" width="160" height="26" rx="4" fill="#374151" stroke="#4B5563" stroke-width="1"/>
  <text x="916" y="61" fill="#E5E7EB" font-size="11" font-family="system-ui,sans-serif">Gemini Flash 2.0  ▾</text>
  <rect x="1072" y="44" width="96" height="26" rx="4" fill="#3B82F6"/>
  <text x="1120" y="61" fill="white" font-size="12" text-anchor="middle" font-weight="600" font-family="system-ui,sans-serif">+ New Chat</text>
  <rect x="1180" y="44" width="88" height="26" rx="4" fill="#374151"/>
  <text x="1224" y="61" fill="#D1D5DB" font-size="11" text-anchor="middle" font-family="system-ui,sans-serif">⚙ Settings</text>

  <!-- LEFT APP SIDEBAR (browser content area) -->
  <rect x="0" y="80" width="240" height="740" fill="#F8FAFC" stroke="#E5E7EB" stroke-width="1"/>
  <text x="16" y="108" fill="#111827" font-size="13" font-weight="600" font-family="system-ui,sans-serif">Sessions</text>
  <rect x="12" y="116" width="240" height="30" rx="6" fill="white" stroke="#D1D5DB" stroke-width="1"/>
  <text x="28" y="136" fill="#9CA3AF" font-size="12" font-family="system-ui,sans-serif">Search sessions...</text>

  <!-- Active session -->
  <rect x="8" y="154" width="248" height="72" rx="8" fill="#EFF6FF" stroke="#BFDBFE" stroke-width="1.5"/>
  <text x="20" y="176" fill="#1D4ED8" font-size="12" font-weight="600" font-family="system-ui,sans-serif">Checkout Error Analysis</text>
  <text x="20" y="193" fill="#6B7280" font-size="11" font-family="system-ui,sans-serif">📷 Screenshot · 🔗 URL · Gemini</text>
  <text x="20" y="210" fill="#9CA3AF" font-size="10" font-family="system-ui,sans-serif">2m ago · 6 messages</text>

  <rect x="8" y="234" width="248" height="64" rx="8" fill="white" stroke="#E5E7EB" stroke-width="1"/>
  <text x="20" y="255" fill="#111827" font-size="12" font-weight="600" font-family="system-ui,sans-serif">Product Page UAT</text>
  <text x="20" y="271" fill="#6B7280" font-size="11" font-family="system-ui,sans-serif">📷 Screenshot · Claude 3.5</text>
  <text x="20" y="287" fill="#9CA3AF" font-size="10" font-family="system-ui,sans-serif">Yesterday · 14 messages</text>

  <rect x="8" y="306" width="248" height="64" rx="8" fill="white" stroke="#E5E7EB" stroke-width="1"/>
  <text x="20" y="327" fill="#111827" font-size="12" font-weight="600" font-family="system-ui,sans-serif">Login Flow Review</text>
  <text x="20" y="343" fill="#6B7280" font-size="11" font-family="system-ui,sans-serif">🔗 URL · ⬡ Element · ChatGPT</text>
  <text x="20" y="359" fill="#9CA3AF" font-size="10" font-family="system-ui,sans-serif">2 days ago · 4 messages</text>

  <rect x="8" y="378" width="248" height="64" rx="8" fill="white" stroke="#E5E7EB" stroke-width="1"/>
  <text x="20" y="399" fill="#111827" font-size="12" font-weight="600" font-family="system-ui,sans-serif">API Response Debug</text>
  <text x="20" y="415" fill="#6B7280" font-size="11" font-family="system-ui,sans-serif">📋 Text Selection · Gemini</text>
  <text x="20" y="431" fill="#9CA3AF" font-size="10" font-family="system-ui,sans-serif">3 days ago · 11 messages</text>

  <text x="132" y="462" fill="#9CA3AF" font-size="11" text-anchor="middle" font-family="system-ui,sans-serif">· · · 8 more sessions · · ·</text>

  <!-- MAIN BROWSER CONTENT -->
  <rect x="240" y="80" width="650" height="740" fill="white"/>
  <rect x="256" y="98" width="380" height="24" rx="6" fill="#CBD5E1"/>
  <rect x="256" y="132" width="600" height="14" rx="7" fill="#E2E8F0"/>
  <rect x="256" y="152" width="560" height="14" rx="7" fill="#E2E8F0"/>
  <rect x="256" y="182" width="610" height="220" rx="10" fill="#EAF2FF"/>
  <rect x="256" y="416" width="610" height="46" rx="8" fill="#FEE2E2"/>
  <text x="274" y="444" fill="#B91C1C" font-size="12" font-family="system-ui,sans-serif">Validation error: Postcode format is invalid</text>
  <rect x="256" y="476" width="172" height="42" rx="8" fill="#2563EB"/>
  <text x="342" y="503" text-anchor="middle" fill="white" font-size="12" font-family="system-ui,sans-serif">Place Order</text>

  <!-- RIGHT SIDEPANEL CHAT -->
  <rect x="890" y="80" width="390" height="740" fill="#F8FAFC" stroke="#E2E8F0" stroke-width="1"/>
  <rect x="890" y="80" width="390" height="52" fill="#FFFFFF" stroke="#E2E8F0" stroke-width="1"/>
  <text x="908" y="112" fill="#111827" font-size="14" font-weight="700" font-family="system-ui,sans-serif">AI Assistant Chat</text>
  <rect x="1038" y="93" width="104" height="26" rx="13" fill="#E8F5E9"/>
  <text x="1090" y="111" text-anchor="middle" fill="#166534" font-size="11" font-family="system-ui,sans-serif">Gemini ▾</text>
  <rect x="1148" y="93" width="120" height="26" rx="13" fill="#EFF6FF"/>
  <text x="1208" y="111" text-anchor="middle" fill="#1D4ED8" font-size="11" font-family="system-ui,sans-serif">+ New Session</text>

  <!-- Default slash skills -->
  <text x="908" y="152" fill="#6B7280" font-size="10" font-family="system-ui,sans-serif">Default skills</text>
  <rect x="908" y="158" width="86" height="22" rx="11" fill="#EEF2FF"/>
  <text x="951" y="173" text-anchor="middle" fill="#4338CA" font-size="10" font-family="system-ui,sans-serif">/screenshot</text>
  <rect x="1000" y="158" width="102" height="22" rx="11" fill="#FCE7F3"/>
  <text x="1051" y="173" text-anchor="middle" fill="#9D174D" font-size="10" font-family="system-ui,sans-serif">/select-element</text>
  <rect x="1108" y="158" width="82" height="22" rx="11" fill="#ECFDF5"/>
  <text x="1149" y="173" text-anchor="middle" fill="#047857" font-size="10" font-family="system-ui,sans-serif">/test-section</text>
  <rect x="1196" y="158" width="76" height="22" rx="11" fill="#FFF7ED"/>
  <text x="1234" y="173" text-anchor="middle" fill="#C2410C" font-size="10" font-family="system-ui,sans-serif">/test-feature</text>

  <!-- Chat canvas -->
  <rect x="904" y="188" width="362" height="420" rx="12" fill="#ECEFF3"/>

  <!-- Messenger-style chat bubbles (left=assistant, right=user) -->
  <rect x="916" y="202" width="248" height="58" rx="14" fill="#FFFFFF"/>
  <text x="930" y="224" fill="#374151" font-size="11" font-family="system-ui,sans-serif">I received your context.</text>
  <text x="930" y="240" fill="#6B7280" font-size="11" font-family="system-ui,sans-serif">Want me to run /test-feature?</text>

  <rect x="1030" y="272" width="224" height="70" rx="14" fill="#DCEBFF"/>
  <text x="1042" y="294" fill="#1E3A8A" font-size="11" font-family="system-ui,sans-serif">Yes, use this screenshot + selected</text>
  <text x="1042" y="310" fill="#1E3A8A" font-size="11" font-family="system-ui,sans-serif">button and verify checkout flow.</text>
  <text x="1242" y="328" text-anchor="end" fill="#60A5FA" font-size="10" font-family="system-ui,sans-serif">You</text>

  <rect x="916" y="356" width="286" height="84" rx="14" fill="#FFFFFF"/>
  <text x="930" y="378" fill="#374151" font-size="11" font-family="system-ui,sans-serif">Result: 3 checks run. 1 failed.</text>
  <text x="930" y="394" fill="#374151" font-size="11" font-family="system-ui,sans-serif">Fail reason: button missing aria-label.</text>
  <text x="930" y="410" fill="#6B7280" font-size="11" font-family="system-ui,sans-serif">Suggested fix included in report.</text>

  <rect x="1028" y="452" width="226" height="54" rx="14" fill="#DCEBFF"/>
  <text x="1040" y="474" fill="#1E3A8A" font-size="11" font-family="system-ui,sans-serif">Great. Export QA summary.</text>
  <text x="1242" y="494" text-anchor="end" fill="#60A5FA" font-size="10" font-family="system-ui,sans-serif">You</text>

  <!-- COMPOSER AREA -->
  <rect x="890" y="620" width="390" height="200" fill="#F9FAFB" stroke="#E5E7EB" stroke-width="1"/>

  <!-- Context chips -->
  <text x="904" y="644" fill="#6B7280" font-size="11" font-family="system-ui,sans-serif">Context attached:</text>
  <rect x="1000" y="630" width="86" height="26" rx="13" fill="#DBEAFE" stroke="#93C5FD" stroke-width="1"/>
  <text x="1043" y="648" text-anchor="middle" fill="#1D4ED8" font-size="11" font-family="system-ui,sans-serif">🔗 URL ×</text>
  <rect x="1092" y="630" width="106" height="26" rx="13" fill="#FEF9C3" stroke="#FDE68A" stroke-width="1"/>
  <text x="1145" y="648" text-anchor="middle" fill="#92400E" font-size="11" font-family="system-ui,sans-serif">📷 Screenshot ×</text>
  <rect x="1204" y="630" width="70" height="26" rx="13" fill="#FCE7F3" stroke="#F9A8D4" stroke-width="1"/>
  <text x="1239" y="648" text-anchor="middle" fill="#9D174D" font-size="11" font-family="system-ui,sans-serif">⬡ Elem ×</text>

  <!-- Capture toolbar -->
  <rect x="904" y="664" width="362" height="34" rx="6" fill="#F3F4F6"/>
  <rect x="910" y="669" width="116" height="24" rx="4" fill="#1D4ED8"/>
  <text x="968" y="685" fill="white" font-size="11" text-anchor="middle" font-family="system-ui,sans-serif">📷 Capture Tab</text>
  <rect x="1032" y="669" width="102" height="24" rx="4" fill="white" stroke="#D1D5DB" stroke-width="1"/>
  <text x="1083" y="685" fill="#374151" font-size="11" text-anchor="middle" font-family="system-ui,sans-serif">⬡ Pick Element</text>
  <rect x="1140" y="669" width="120" height="24" rx="4" fill="white" stroke="#D1D5DB" stroke-width="1"/>
  <text x="1200" y="685" fill="#374151" font-size="11" text-anchor="middle" font-family="system-ui,sans-serif">Drop/Paste Image</text>

  <!-- Text input + send -->
  <rect x="904" y="704" width="300" height="56" rx="8" fill="white" stroke="#D1D5DB" stroke-width="1"/>
  <text x="916" y="736" fill="#9CA3AF" font-size="12" font-family="system-ui,sans-serif">Type message or use /skill command...</text>
  <rect x="1210" y="704" width="56" height="56" rx="8" fill="#3B82F6"/>
  <text x="1238" y="736" fill="white" font-size="24" text-anchor="middle" font-family="system-ui,sans-serif">↑</text>

  <!-- Drag drop indicator on input -->
  <rect x="904" y="702" width="300" height="60" rx="8" fill="none" stroke="#93C5FD" stroke-width="2" stroke-dasharray="5 3" opacity="0.5"/>
  <text x="908" y="778" fill="#6B7280" font-size="10" font-family="system-ui,sans-serif">Enter = Send · Shift+Enter = New line · Mobile width >= 360px</text>
</svg>
