<svg width="1280" height="720" viewBox="0 0 1280 720" fill="none" xmlns="http://www.w3.org/2000/svg">
  <rect width="1280" height="720" fill="#ECF1F7"/>
  <text x="16" y="20" fill="#475569" font-size="12" font-family="Arial, sans-serif">Wireframe: UAT and QA inside AI Sidepanel</text>

  <rect x="24" y="24" width="1232" height="672" rx="14" fill="#FFFFFF" stroke="#D1D5DB"/>
  <rect x="24" y="24" width="1232" height="42" rx="14" fill="#F3F4F6"/>
  <circle cx="46" cy="45" r="6" fill="#F87171"/>
  <circle cx="68" cy="45" r="6" fill="#FBBF24"/>
  <circle cx="90" cy="45" r="6" fill="#34D399"/>
  <rect x="120" y="35" width="720" height="20" rx="6" fill="#E5E7EB"/>

  <!-- Left browser tab content -->
  <rect x="40" y="78" width="850" height="602" fill="#F8FAFC"/>
  <rect x="56" y="98" width="420" height="20" rx="4" fill="#CBD5E1"/>
  <rect x="56" y="128" width="780" height="12" rx="4" fill="#E2E8F0"/>
  <rect x="56" y="146" width="760" height="12" rx="4" fill="#E2E8F0"/>
  <rect x="56" y="176" width="376" height="200" rx="10" fill="#DCEBFF"/>
  <rect x="448" y="176" width="388" height="200" rx="10" fill="#F1F5F9"/>
  <rect x="56" y="392" width="780" height="40" rx="8" fill="#FEE2E2"/>
  <text x="72" y="416" fill="#B91C1C" font-size="12" font-family="Arial, sans-serif">Validation error: Postcode format is invalid.</text>
  <rect x="56" y="448" width="160" height="36" rx="8" fill="#2563EB"/>
  <text x="136" y="471" text-anchor="middle" fill="#FFFFFF" font-size="12" font-family="Arial, sans-serif">Place Order</text>

  <!-- Right assistant panel -->
  <rect x="890" y="78" width="350" height="602" fill="#F7F8FA" stroke="#E5E7EB"/>
  <rect x="890" y="78" width="350" height="48" fill="#FFFFFF" stroke="#E5E7EB"/>
  <rect x="900" y="90" width="18" height="24" rx="6" fill="#EEF2FF"/>
  <text x="909" y="106" text-anchor="middle" fill="#4338CA" font-size="12" font-family="Arial, sans-serif">≡</text>
  <text x="924" y="108" fill="#111827" font-size="14" font-weight="700" font-family="Arial, sans-serif">AI Assistant</text>
  <rect x="1088" y="90" width="88" height="24" rx="12" fill="#EDE9FE"/>
  <text x="1132" y="106" text-anchor="middle" fill="#6D28D9" font-size="11" font-family="Arial, sans-serif">UAT Mode</text>
  <rect x="1182" y="90" width="46" height="24" rx="12" fill="#EFF6FF"/>
  <text x="1205" y="106" text-anchor="middle" fill="#1D4ED8" font-size="11" font-family="Arial, sans-serif">Run</text>

  <!-- Sessions rail -->
  <rect x="900" y="132" width="68" height="402" rx="10" fill="#F1F5F9" stroke="#E2E8F0"/>
  <text x="934" y="149" text-anchor="middle" fill="#64748B" font-size="9" font-family="Arial, sans-serif">SESSIONS</text>
  <rect x="906" y="156" width="56" height="20" rx="6" fill="#FFFFFF" stroke="#D1D5DB"/>
  <text x="934" y="170" text-anchor="middle" fill="#94A3B8" font-size="9" font-family="Arial, sans-serif">Find</text>
  <rect x="906" y="182" width="56" height="40" rx="8" fill="#EFF6FF" stroke="#BFDBFE"/>
  <text x="934" y="197" text-anchor="middle" fill="#1D4ED8" font-size="8" font-family="Arial, sans-serif">UAT</text>
  <text x="934" y="210" text-anchor="middle" fill="#64748B" font-size="8" font-family="Arial, sans-serif">14 msgs</text>

  <!-- UAT input + report inside assistant -->
  <text x="980" y="146" fill="#6B7280" font-size="10" font-family="Arial, sans-serif">UAT Commands</text>
  <rect x="980" y="154" width="84" height="22" rx="11" fill="#ECFDF5"/>
  <text x="1022" y="168" text-anchor="middle" fill="#047857" font-size="10" font-family="Arial, sans-serif">/test-section</text>
  <rect x="1070" y="154" width="86" height="22" rx="11" fill="#FFF7ED"/>
  <text x="1113" y="168" text-anchor="middle" fill="#C2410C" font-size="10" font-family="Arial, sans-serif">/test-feature</text>

  <rect x="980" y="184" width="250" height="76" rx="10" fill="#FFFFFF" stroke="#D1D5DB"/>
  <text x="990" y="206" fill="#374151" font-size="10" font-family="Arial, sans-serif">Test criteria:</text>
  <text x="990" y="224" fill="#64748B" font-size="10" font-family="Arial, sans-serif">1. Place Order visible</text>
  <text x="990" y="240" fill="#64748B" font-size="10" font-family="Arial, sans-serif">2. Errors readable 3. Accessible button</text>

  <rect x="980" y="268" width="72" height="22" rx="11" fill="#DBEAFE"/>
  <text x="1016" y="282" text-anchor="middle" fill="#1D4ED8" font-size="10" font-family="Arial, sans-serif">URL x</text>
  <rect x="1058" y="268" width="94" height="22" rx="11" fill="#FEF3C7"/>
  <text x="1105" y="282" text-anchor="middle" fill="#92400E" font-size="10" font-family="Arial, sans-serif">Screenshot x</text>
  <rect x="1158" y="268" width="72" height="22" rx="11" fill="#FCE7F3"/>
  <text x="1194" y="282" text-anchor="middle" fill="#9D174D" font-size="10" font-family="Arial, sans-serif">Elem x</text>

  <rect x="980" y="298" width="250" height="192" rx="10" fill="#ECEFF3"/>
  <rect x="988" y="308" width="234" height="48" rx="8" fill="#F0FDF4" stroke="#BBF7D0"/>
  <text x="998" y="326" fill="#15803D" font-size="10" font-family="Arial, sans-serif">PASS: Place Order button visible and enabled.</text>
  <text x="998" y="342" fill="#166534" font-size="10" font-family="Arial, sans-serif">Element found and in viewport.</text>

  <rect x="988" y="364" width="234" height="52" rx="8" fill="#FFFBEB" stroke="#FDE68A"/>
  <text x="998" y="382" fill="#92400E" font-size="10" font-family="Arial, sans-serif">PARTIAL: Inline errors exist, but postcode</text>
  <text x="998" y="398" fill="#B45309" font-size="10" font-family="Arial, sans-serif">message is generic and not actionable.</text>

  <rect x="988" y="424" width="234" height="56" rx="8" fill="#FEF2F2" stroke="#FECACA"/>
  <text x="998" y="442" fill="#B91C1C" font-size="10" font-family="Arial, sans-serif">FAIL: button missing aria-label attribute.</text>
  <text x="998" y="458" fill="#991B1B" font-size="10" font-family="Arial, sans-serif">Recommendation generated for fix.</text>

  <!-- Composer -->
  <rect x="980" y="500" width="250" height="64" rx="10" fill="#FFFFFF" stroke="#D1D5DB"/>
  <text x="990" y="520" fill="#9CA3AF" font-size="10" font-family="Arial, sans-serif">Ask AI to export or rerun tests...</text>
  <rect x="990" y="526" width="190" height="30" rx="8" fill="#F9FAFB" stroke="#E5E7EB"/>
  <text x="1000" y="545" fill="#64748B" font-size="10" font-family="Arial, sans-serif">/test-feature checkout</text>
  <rect x="1186" y="526" width="36" height="30" rx="8" fill="#2563EB"/>
  <text x="1204" y="545" text-anchor="middle" fill="#FFFFFF" font-size="14" font-family="Arial, sans-serif">^</text>
  <text x="990" y="580" fill="#6B7280" font-size="10" font-family="Arial, sans-serif">Enter = Send · Shift+Enter = New line</text>
</svg>
